<svg version="1.2" xmlns="http://www.w3.org/2000/svg" viewBox="0 0 92 108" width="92" height="108"><defs><clipPath clipPathUnits="userSpaceOnUse" id="cp1"><path d="m-1596-1408h3840v3884h-3840z"/></clipPath></defs><style>.a{fill:#34cea6}</style><g clip-path="url(#cp1)"><path class="a" d="m35.3 105c-1-0.5-2.1-1-3-1.6-1.4-1.1-2.1-2.6-2.1-4.4-0.1-4.4-0.1-8.9-0.2-13.3 0-0.4 0-0.8 0-1.4-1.4 0-2.8 0-4.2 0-2.9 0.1-5.2-1.1-6.5-3.8-0.5-0.8-0.7-1.8-0.7-2.8-0.1-13.8-0.1-27.6-0.1-41.4 0-0.1 0.1-0.3 0.1-0.4h57.3q0.1 0.5 0.1 1c0 13.3-0.1 26.7 0 40 0 4.1-2.5 6.7-5.3 7.2-1.6 0.3-3.2 0.2-4.8 0.3-0.4 0-0.8 0-1.4 0v1.1c0 3.8-0.1 7.5 0 11.2 0.2 4.1-1.1 7-5.2 8.3h-2.5c-4.1-1.2-5.4-4.2-5.3-8.2 0.2-3.8 0.1-7.5 0.1-11.3v-1.1h-8.6c0 0.5 0 0.8 0 1.2q-0.1 6.3 0 12.5c0 2-0.5 3.8-2.1 5.1-0.9 0.8-2.1 1.2-3.2 1.8z"/><path fill-rule="evenodd" class="a" d="m18.2 33.5c0.4-10.7 5.8-18 14.8-23.1q-1.4-2.6-2.8-5.2-0.7-1.3-1.4-2.7c-0.3-0.5-0.6-1.1 0.2-1.5 0.8-0.4 1.1 0.2 1.4 0.7q1.9 3.6 3.9 7.2 0.2 0.3 0.4 0.7c8.4-3.5 16.7-3.5 25.1 0q0.5-0.8 0.9-1.6 1.7-3.1 3.5-6.3c0.3-0.6 0.6-1.1 1.4-0.7 0.7 0.4 0.4 1 0.1 1.6q-2.1 3.8-4.2 7.8c9 5.1 14.3 12.4 14.7 23.1zm15.8-10.5c1.3 0 2.4-1 2.5-2.3 0-1.3-1.2-2.5-2.5-2.5-1.2 0-2.3 1.1-2.3 2.4 0 1.3 1 2.4 2.3 2.4zm26.5 0c1.3 0 2.3-1.1 2.3-2.4 0-1.3-1.1-2.4-2.4-2.4-1.2 0-2.4 1.1-2.4 2.4 0 1.3 1.2 2.5 2.5 2.4z"/><path class="a" d="m78.6 54.5c0-4.8-0.1-9.5 0-14.2 0.1-3.2 2.9-5.6 6.2-5.7 3.3 0 6.1 2.3 6.4 5.5q0.1 1 0.2 2-0.1 12.6 0 25.2c0 2.8-1 5-3.6 6.3-4 2.1-9-0.6-9.2-5.1-0.2-4.7 0-9.4 0-14z"/><path class="a" d="m15.9 54.5c0 4.7 0.1 9.4 0 14-0.1 3.3-2.9 5.8-6.2 5.8-3.3 0.1-6.1-2.4-6.4-5.5q-0.1-1.1-0.1-2.1 0-12.5 0-25.1c0-2.8 1-5.1 3.6-6.4 4-2 8.9 0.8 9.1 5.2 0.2 4.7 0 9.4 0 14.1z"/></g></svg>