<svg version="1.2" xmlns="http://www.w3.org/2000/svg" viewBox="0 0 160 156" width="160" height="156"><defs><clipPath clipPathUnits="userSpaceOnUse" id="cp1"><path d="m-1420-2708h3840v6244h-3840z"/></clipPath></defs><style>.a{fill:#1f78ba}.b{fill:#fff}</style><g clip-path="url(#cp1)"><path class="a" d="m80.4 154.4c-42.4 0-76.6-34.3-76.6-76.6 0-42.4 34.2-76.6 76.6-76.6 42.3 0 76.6 34.2 76.6 76.6 0 42.3-34.3 76.6-76.6 76.6z"/><path class="b" d="m64.9 93.2c8.5 8.2 17.7 16.4 28.3 21.8 3.4 1.7 7.3 3.4 11.2 3.3 3.2 0 5.3-1.6 7.5-3.8l5.4-5.5c2.6-2.5 5-5.4 3.3-9.3-1-2.1-3.2-3.8-4.8-5.4l-7.1-7c-0.6-0.6-1.1-1.3-1.8-1.9-2.1-1.7-5.1-2.1-7.5-0.8-1.4 0.7-2.6 2.1-3.7 3.2l-3.1 3.1 1.6-0.7c-6.9-0.7-12.3-7-16.9-11.6-4.5-4.5-10.3-10.1-9.8-16.9l-0.7 1.5c1.8-1.7 4.2-3.5 5.4-5.8 1.7-3.3 0.2-6.4-2.2-8.8l-6.5-6.5c-1.8-1.8-3.5-4.1-6.1-4.7-3.7-0.8-6.1 1.6-8.4 4l-5.4 5.4c-2.1 2.1-3.7 4.2-3.9 7.3-0.3 3.7 1.1 7.4 2.7 10.6 2.4 5.1 5.8 9.6 9.3 14 4.1 5.1 8.6 9.9 13.2 14.5 2.1 2.1 5.2-1.1 3.2-3.2-8.1-8-16.5-16.8-21.6-27.1-1.5-2.8-3.2-6.8-2-10 0.7-2 2.9-3.6 4.4-5.1l3.3-3.3c0.8-0.8 1.5-1.8 2.4-2.3 2.3-1.6 4.7 2 6.1 3.4 2.3 2.3 4.5 4.5 6.7 6.7 2.4 2.5-0.4 4.4-2.2 6.2-1.2 1.2-2.2 2-2.3 3.9 0 2.4 0.6 4.8 1.6 7 2 4.4 5.4 8.2 8.8 11.6 3.4 3.4 6.7 6.7 10.6 9.5 2.1 1.5 4.5 2.8 7 3.6 2 0.6 3.8 1 5.4-0.5 1.2-1.2 2.4-2.4 3.6-3.6 0.9-0.9 1.8-2.1 3.3-1.6 0.8 0.3 1.4 1.1 1.9 1.6l3.3 3.2 6.8 6.9c0.7 0.7 1.4 1.3 1.5 2.3 0 1.4-1.4 2.4-2.3 3.3l-5.3 5.2c-2 2.1-3.2 3.3-6.3 2.8-4.5-0.6-8.7-3.1-12.4-5.5-5.3-3.3-10.2-7.2-14.8-11.3q-3.9-3.3-7.5-6.9c-2.1-2-5.3 1.2-3.2 3.2z"/><path fill-rule="evenodd" class="b" d="m104.1 119.8c-4.2 0-8.2-1.7-11.6-3.5-10.7-5.5-20.1-13.8-28.5-21.9q-0.1-0.1-0.1-0.1-0.1-0.1-0.1-0.1c-5.3-5.3-9.5-10-13.2-14.6-3.3-4-7-8.9-9.6-14.2-1.5-3.1-3.2-7.2-2.8-11.4 0.3-3.8 2.3-6.2 4.3-8.3l5.5-5.5c2.5-2.4 5.3-5.2 9.7-4.2 2.6 0.5 4.4 2.4 6 4.1q0.5 0.5 0.9 0.9l6.5 6.5c3.4 3.4 4.2 7.1 2.4 10.6-0.9 1.9-2.7 3.5-4.2 4.8q-0.1 0.2-0.3 0.4c0.4 5.3 5.1 10 9 13.9l0.3 0.3q0.8 0.8 1.6 1.6c3.8 3.9 8.1 8.2 13 9.4l1.8-1.7q0.3-0.4 0.6-0.7c1-1 2-2.2 3.4-2.9 2.9-1.5 6.6-1.1 9.2 1.1q0.7 0.7 1.4 1.4 0.3 0.3 0.5 0.5l7 7q0.6 0.5 1.2 1.1c1.4 1.4 3.1 2.9 3.9 4.9 2.3 5.1-1.5 8.9-3.5 10.9l-5.4 5.4c-2.1 2.1-4.6 4.2-8.6 4.3q-0.1 0-0.3 0zm-35.5-25.2c7.6 7.2 15.9 14.3 25.3 19 3.1 1.7 6.8 3.3 10.4 3.2 2.7 0 4.4-1.3 6.6-3.4l5.4-5.4c2.8-2.8 4.1-4.9 2.9-7.7-0.6-1.3-2-2.6-3.3-3.8q-0.6-0.6-1.2-1.2l-7-7q-0.3-0.2-0.5-0.5-0.7-0.7-1.3-1.2c-1.6-1.4-4-1.7-5.8-0.7-0.9 0.5-1.8 1.4-2.6 2.2q-0.4 0.4-0.7 0.8l-0.1 0.1 1.9 0.2q0.1-0.1 0.2-0.2l0.2-0.3c0.9-0.9 2.5-2.5 4.7-1.7 1 0.3 1.7 1.1 2.2 1.6q0.2 0.2 0.3 0.4l10.3 10.2c0.7 0.7 1.6 1.6 1.6 3.2 0.1 1.8-1.2 3-2.2 3.9q-0.2 0.2-0.5 0.4l-5.3 5.4c-2.1 2-3.7 3.7-7.5 3.1-4.7-0.7-9-3.2-13-5.7-4.7-3-9.5-6.7-15-11.5q-2.5-2.1-5-4.4-0.2 0.3-0.5 0.6-0.2 0.3-0.5 0.4zm23.3-1.8c1.6 0.5 2.5 0.5 3.4-0.3q0.9-0.9 1.8-1.9zm-25.8-0.6c0.3 0.4 0.7 0.2 0.9-0.1 0.3-0.2 0.5-0.6 0.1-1q-0.3-0.3-0.6-0.2c-0.3 0.1-0.6 0.4-0.7 0.7 0 0.1 0 0.3 0.2 0.5q0 0 0 0.1zm-0.8-25.2q0.3 0.8 0.7 1.7c1.9 4.4 5.4 8.1 8.5 11.2l0.3 0.3c3.1 3.2 6.4 6.5 10 9.1q2.4 1.6 4.7 2.6l1.1-1c-5-1.9-9.2-6.2-12.7-9.7q-0.8-0.8-1.6-1.6l-0.3-0.3c-3.7-3.7-8.2-8.1-9.6-13.5zm-9.2-28.2c-2.2 0-3.9 1.6-5.8 3.5l-5.5 5.5c-1.9 2-3.2 3.8-3.5 6.4-0.3 3.5 1.2 7.1 2.6 9.9 2.4 5.1 6 9.7 9.2 13.7 3 3.7 6.4 7.6 10.5 11.8q0.4-0.6 1.1-1.1c-7.7-7.7-14.8-15.6-19.4-24.9-1.8-3.6-3.4-7.6-2.1-11.2 0.7-1.9 2.3-3.3 3.7-4.6q0.6-0.6 1.1-1.1l3.3-3.3q0.4-0.3 0.7-0.7c0.5-0.6 1.2-1.3 1.9-1.8 3-2 5.8 1.2 7.3 2.9q0.4 0.4 0.7 0.8 1.2 1.1 2.3 2.2 2.2 2.2 4.4 4.5 0.8 0.7 1.1 1.5l0.1-0.4v0.6q0.2 0.7 0.2 1.3 0 0.9-0.4 1.7l-0.3 2.9c0.7-0.7 1.3-1.4 1.7-2.2 1.2-2.2 0.6-4.6-1.9-7l-6.5-6.5q-0.4-0.5-0.9-1c-1.4-1.4-2.8-2.9-4.5-3.3q-0.5-0.1-1.1-0.1zm11.1 20q0 0.1-0.1 0.1-0.3 0.3-0.7 0.7l-0.4 0.3c-1 1.1-1.4 1.5-1.4 2.5q0 1.1 0.2 2.3z"/></g></svg>