<svg version="1.2" xmlns="http://www.w3.org/2000/svg" viewBox="0 0 456 456" width="456" height="456"><defs><clipPath clipPathUnits="userSpaceOnUse" id="cp1"><path d="m-1692-4988h3840v6244h-3840z"/></clipPath></defs><style>.a{fill:#338ed1;stroke:#fff;stroke-width:64}.b{fill:#fff}</style><g clip-path="url(#cp1)"><path class="a" d="m229 454.2c-125 0-226-101-226-226 0-124.9 101-226 226-226 125 0 226 101.1 226 226 0 125-101 226-226 226z"/><path class="b" d="m196.6 297.3l-63.8-64.1c-3.8-3.8-3.8-10 0-13.9l13.9-13.9c3.8-3.9 10-3.9 13.9 0l42.9 43.1 91.9-92.5c3.9-3.8 10.1-3.8 13.9 0l13.9 14c3.8 3.8 3.8 10.1 0 13.9l-112.8 113.4c-3.8 3.9-10 3.9-13.8 0z"/></g></svg>