<svg version="1.2" xmlns="http://www.w3.org/2000/svg" viewBox="0 0 40 52" width="40" height="52"><defs><clipPath clipPathUnits="userSpaceOnUse" id="cp1"><path d="m-1380-2024h3840v6244h-3840z"/></clipPath></defs><style>.a{fill:#9699b5}</style><g clip-path="url(#cp1)"><path fill-rule="evenodd" class="a" d="m38.1 23v20.8c0 2.5-2 4.5-4.5 4.5h-25.1c-2.5 0-4.5-2-4.5-4.5v-20.8c0-2.2 1.6-4.1 3.6-4.5v-6.6c0-6.4 4.9-11.6 11-11.6h4.8c6 0 10.9 5.2 10.9 11.6v6.6c2.1 0.4 3.8 2.3 3.8 4.5zm-7.4-11.1c0-4.3-3.3-7.8-7.3-7.8h-4.8c-4 0-7.3 3.5-7.3 7.8v6.6h19.4z"/></g></svg>