<svg version="1.2" xmlns="http://www.w3.org/2000/svg" viewBox="0 0 392 140" width="392" height="140"><defs><clipPath clipPathUnits="userSpaceOnUse" id="cp1"><path d="m-276-68h3840v6244h-3840z"/></clipPath></defs><style>.a{fill:#fff}.b{fill:#f9c023}</style><g clip-path="url(#cp1)"><path class="a" d="m197.9 81q-1.4 0-2.2 0.5-0.8 0.6-1.5 1.8l-7.7 13.9-7.7-13.9q-0.7-1.2-1.5-1.8-0.8-0.5-2.1-0.5-1.7 0-2.6 0.9-0.9 0.8-0.9 2.4v21.7q0 1.6 0.9 2.4 0.8 0.9 2.4 0.9c1 0 1.8-0.3 2.4-0.9q0.8-0.8 0.8-2.4v-11.9l5.5 9.4q0.5 0.9 1.1 1.3 0.6 0.4 1.6 0.4c0.6 0 1.2-0.1 1.6-0.4q0.6-0.4 1.2-1.3l5.4-9.5v12q0 1.6 0.9 2.5 0.8 0.8 2.4 0.8c1 0 1.9-0.3 2.4-0.8q0.8-0.9 0.8-2.5v-21.7q0-1.6-0.8-2.4-0.9-0.9-2.4-0.9z"/><path class="a" d="m224.9 81q-1.1 0-2 0.5-0.9 0.6-1.7 1.8l-4.8 7-4.7-7q-0.8-1.2-1.7-1.7-0.9-0.6-2-0.6-1.6 0-2.4 0.8-0.9 0.9-1 2-0.1 1.1 0.6 2.1l7.5 10.9v8.8q0 1.8 1 2.8 0.9 0.9 2.6 0.9 3.6 0 3.6-3.7v-8.8l7.5-10.8q0.8-1.2 0.7-2.4 0-1.1-0.9-1.8-0.8-0.8-2.3-0.8z"/><path class="a" d="m265.7 94v12q0 1.6 0.8 2.5 0.9 0.8 2.4 0.8c1.1 0 1.9-0.3 2.5-0.8q0.8-0.9 0.8-2.5v-21.7q0-1.6-0.9-2.4-0.8-0.9-2.4-0.9-1.3 0-2.1 0.5-0.8 0.6-1.5 1.8l-7.7 13.9-7.8-13.9q-0.6-1.2-1.4-1.8-0.9-0.5-2.2-0.5-1.6 0-2.5 0.9-0.9 0.8-0.9 2.4v21.7q0 1.6 0.8 2.5 0.8 0.8 2.4 0.8c1.1 0 1.9-0.3 2.4-0.8q0.9-0.9 0.9-2.5v-11.9l5.4 9.4q0.5 0.9 1.1 1.3 0.7 0.4 1.6 0.4c0.7 0 1.3-0.1 1.7-0.4q0.6-0.4 1.1-1.3c0 0 5.5-9.5 5.5-9.5z"/><path fill-rule="evenodd" class="a" d="m302.9 87.6c1.1 2.2 1.7 4.7 1.7 7.5q0 4.3-1.7 7.5-1.8 3.2-5 5-3.1 1.8-7.3 1.8-4.2 0-7.3-1.8-3.2-1.8-5-5c-1.1-2.1-1.7-4.6-1.7-7.5q0-4.3 1.7-7.5 1.8-3.1 4.9-4.9 3.2-1.8 7.4-1.8 4.2 0 7.3 1.8 3.2 1.8 5 4.9zm-5.8 7.5q0-3.8-1.7-6-1.7-2.1-4.8-2.1-3.1 0-4.8 2.1-1.7 2.2-1.7 6 0 3.9 1.7 6.1c1.1 1.4 2.8 2.2 4.8 2.2q3 0 4.8-2.2 1.7-2.2 1.7-6.1z"/><path fill-rule="evenodd" class="a" d="m331 97q1.3 1.7 1.3 4.1 0 3.7-2.6 5.8-2.6 2.1-7.1 2.1h-10q-3.7 0-3.7-3.8v-20.1q0-3.7 3.7-3.7h9.6q4.5 0 6.9 1.9 2.4 1.9 2.4 5.2 0 2.1-1 3.7-1.1 1.6-3 2.4 2.3 0.7 3.5 2.4zm-15.2-4.7h5.1q2 0 2.9-0.7 0.9-0.7 0.9-2.1 0-1.5-0.9-2.2-0.9-0.7-2.9-0.7h-5.1c0 0 0 5.7 0 5.7zm9.6 8.3q0-1.5-0.9-2.2-0.9-0.8-2.9-0.8h-5.8v6.1h5.8q2 0 2.9-0.8 0.9-0.7 0.9-2.3z"/><path class="a" d="m340 81q-1.8 0-2.7 0.9-0.9 1-0.9 2.8v20.9q0 1.8 0.9 2.8 0.9 0.9 2.7 0.9c1.1 0 2-0.3 2.6-0.9q1-1 1-2.8v-20.9q0-1.8-1-2.8-0.9-0.9-2.6-0.9z"/><path class="a" d="m365.3 103h-9.5v-18q0-1.8-1-2.7-0.9-1-2.6-1-1.8 0-2.7 1-0.9 0.9-0.9 2.7v20.3q0 1.7 0.9 2.7 0.9 0.9 2.7 0.9h13.1q1.5 0.1 2.3-0.7 0.8-0.8 0.8-2.3 0-1.4-0.8-2.2-0.8-0.7-2.3-0.7z"/><path class="a" d="m388.5 103.4h-10.1v-5.7h9.2q2.9 0 2.9-2.8 0-2.7-2.9-2.7h-9.2v-5.3h10.1q2.8 0 2.8-2.8c0-1.9-0.9-2.7-2.8-2.7h-13.3q-3.7 0-3.7 3.7v20.1q0 3.8 3.7 3.7h13.3q2.8 0 2.8-2.7 0-2.8-2.8-2.8z"/><path class="a" d="m193.5 29.1c-3.7-1.8-9.1-1.8-12.1-0.2-6 3.2-9 11.1-6.7 17.9 1.1 3.3 4.8 6.7 9.8 9.4 4.3 2.3 5.3 3.1 4.8 4-0.8 1.3-4.6 0.2-8.8-2.5-3.8-2.5-6-2.6-8.3-0.2-1.4 1.3-1.7 2-1.7 3.7 0 1.9 0.3 2.3 2.3 4.3 2.6 2.5 6.8 4.8 10.5 5.7 9.1 2.3 17.4-3.2 17.4-11.5 0-5.3-2.4-8.3-10.4-12.8-5.1-3-6.2-4.3-5.2-6.6 0.3-0.8 1-1.7 1.5-1.8 1.3-0.4 4.4 1.3 5.7 3.1 4.5 6.1 12.7 1.7 9.4-5-1.3-2.8-4.7-5.9-8.2-7.5z"/><path class="a" d="m256.5 46.8c2.5-11.1 2.7-12.9 1.7-14.8-2.6-5-9.1-3.6-10.5 2.2-3.9 17.2-5.4 23.5-5.9 24.7-0.5 1.4-0.5 1.5-1.3 0.5-0.9-1.2-3-5.8-4.5-10-1.6-4.3-2.6-5.7-4.9-6.4-2.3-0.7-5 0.1-6.2 1.8-0.4 0.7-1.6 3.4-2.5 6.2-1.9 5-3.8 9.1-4.2 9.1-0.7 0-2.3-4.8-3.9-11-2-8-2.9-9.2-6.4-9.2-1.9 0-2.4 0.2-3.7 1.7-1.5 1.6-1.5 1.7-1.2 5.3 0.3 4.1 3 13.8 5 17.6 1.5 3.1 3.4 5.2 5.5 6.4 2.4 1.2 6.4 1.2 8.7 0 2.3-1.2 4.6-3.5 6.1-6.3l1.2-2.1 1.3 2.2c1.6 2.7 5.2 5.9 7.5 6.7 2.5 0.8 6.1 0.3 8.4-1.2 4.3-2.8 5.9-6.8 9.8-23.4z"/><path class="a" d="m284.5 61.6c1.1-1 2.4-2.5 3-3.5 0.5-0.9 1.2-1.6 1.4-1.6 0.2 0 0.9 2.6 1.5 5.7 0.7 3.2 1 6.4 1.2 9.3 0 1.4 1.1 2.4 2.4 2.4h6.2c1.4 0 2.6-1.2 2.5-2.7-0.3-3.5-0.9-7.7-1.9-12.3-1.7-8.1-6.3-23.8-7.3-24.9-1.3-1.5-4.2-2.1-5.8-1.3-2.1 1-3 2.6-4.4 7.7-2.8 9.8-6.6 15.5-9.7 14.3-1.8-0.6-3-4.9-3.6-12.3-0.4-4.1-0.6-4.6-1.9-6-2.5-2.5-6.5-1.7-8.3 1.6-1.5 2.7 0.3 15.5 2.8 20.4 4.2 8.2 14.7 9.7 21.9 3.2z"/><path class="a" d="m298.5 116.6h-3.5c-1.7 0-3.2 1.1-3.6 2.7q-0.2 0.6-0.4 1.1c-2 5.2-8.4 9.3-12.7 8.3-3.1-0.8-4.4-1.7-7.1-5.1-1.5-1.8-3.4-3.6-4.2-4.1-3.4-1.7-7.4 0.9-7.4 4.9 0 2.5 1.1 4.3 4.8 8.5 2.5 2.8 5.5 4.7 9.3 6.1 1.8 0.6 3.5 0.8 6.8 0.7 4-0.2 4.8-0.4 8.5-2.2 7.1-3.4 11.2-8.3 13.2-16.1 0.6-2.4-1.2-4.8-3.7-4.8z"/><path class="a" d="m310 49.1c2.3 10 7 20.3 10 21.8 2.1 1.1 3 1.1 4.8 0.2 3.2-1.7 3.9-5.2 1.8-8.9-2.3-3.8-5-11.2-6.3-17.3-0.3-1.2-0.2-1.4 1.5-1.6 4-0.7 4.6-0.9 6-2.1 2.8-2.4 2.3-7-1.1-8.5-1.2-0.6-2.4-0.8-4.7-0.5l-3.2 0.2 0.4-6.5c0.4-7.6 1-12.6 2.1-16.9 0.4-1.7 0.6-3.8 0.4-4.6-1-5.1-7.6-5.6-10-0.7-1.6 3.5-3.2 14.7-3.6 25.9l-0.1 3.4-2.9-0.1c-3.6-0.2-5.7 0.9-6.6 3.5-0.4 1.3-0.4 2 0.2 3.4 1 2.3 2.7 3.3 6.8 3.9l3.4 0.6c0 0 1.1 4.8 1.1 4.8z"/><path class="a" d="m355.4 64c1.5-3 1.6-4.4 0.3-6.5-1.1-1.9-2.5-2.7-4.6-2.7-2 0-3.2 0.8-5.1 3.4-0.8 1.1-1.9 2.1-2.5 2.3-3.1 1-4.9-6.2-3.1-12.3 1.3-4.5 4.3-4.6 6.1-0.3 1.3 3 2.6 4 5.1 4.1 5.3 0 6.9-5.6 3.4-11.6-1.4-2.4-3.5-4.1-6.8-5.5-3-1.3-7.8-1.2-10.8 0.4-2.7 1.4-5.8 5-7 8.1-1.2 3.2-2.1 9.9-1.7 12.3 1.4 9.1 5.1 14.3 11.1 15.8 5.5 1.4 13-2.2 15.6-7.5z"/><path class="a" d="m377.1 51.9l0.9-1.2 0.6 2c0.2 1 0.6 4.7 0.8 8.2 0.3 7.3 0.9 9.1 3.3 10.2 3.2 1.5 5.9 0.5 7.4-2.5 0.7-1.5 0.8-2.7 0.5-8.2-0.1-3.5-0.6-7.9-1-9.8-2.5-10.7-10.9-15-17.7-9.1-1.2 0.9-2.2 1.7-2.3 1.6-0.3-0.4 0.7-14.3 1.5-19 0.4-2.5 1.3-6.6 2-9.1 1.2-4.3 1.2-4.5 0.4-6.2-1.5-3.1-4.6-4-7.4-2.3-2 1.2-2.8 2.8-4 7.7-2.6 10-3.7 23.1-3.3 36.7 0.3 13 1.8 18.1 5.7 20.1 1.8 1 3.3 0.8 5.2-0.4 1.5-1 2.3-2.8 3-6.8 0.7-3.9 3-10.1 4.4-11.9z"/><path fill-rule="evenodd" class="a" d="m151.5 83.3c0 4.3 0 8.5 0 12.8-0.2 7.7-5.4 13.5-12.9 14.4q-0.5 0.1-1 0.1-0.3 0-0.6 0h-54.2c-4.1 0-8.3 0.3-12.1-1.9-8.6-5.1-7-16.4-6.9-25q-11.7 4.4-23.5 8.8c-2.7 1-5.5 2.5-8.5 2.3-4.3-0.3-7.3-3.2-8.8-7.1-5.7-14.8-11.2-29.7-16.8-44.6-0.6-1.6-1.3-3.2-1.8-4.8-1.5-5.4 1.5-10.7 6.6-12.7 7.5-2.9 15-5.7 22.6-8.5 2.2-0.8 4.4-1.7 6.6-2.5 5.3-1.7 10.5 0.8 12.6 6 2.5 5.9 4.6 12 6.8 18q2.1 5.6 4.2 11.2v-6.9c0-8.1-0.3-16.3 0-24.4 0.4-8.1 6.4-13.7 14.4-14 5-0.1 10.1 0 15.2 0 12.6 0 26.2-1.5 37.7 4.7 14 7.5 20.4 21.7 20.4 37zm-87.9-6.5q0.1 0 0.2-0.1v-8.5q-1.4-3.7-2.8-7.3-5-13.5-10.1-26.9-1.6-4.4-3.2-8.7c-0.6-1.4-1-3.5-2.5-4.4-1.9-1.1-4.7 0.6-6.6 1.3 1 1.5 0.9 4-1.4 4.8q-8.4 3.2-16.7 6.3c-2.3 0.9-4-0.8-4.3-2.7q0 0-0.1 0c-2 0.8-4.8 1.3-5.5 3.7-0.5 1.7 0.5 3.6 1.1 5.2q1.7 4.4 3.3 8.7 4.6 12.2 9.2 24.3c1.7 4.5 3 9.4 5.1 13.8 1.5 3 4.1 1.9 6.4 1q5.2-1.9 10.4-3.9 8.7-3.2 17.5-6.6zm78.6-8.4c0-8.6 0.2-17.2 0-25.7-0.4-16.2-13.9-28.7-29.8-28.9-10.3-0.1-20.6 0-30.9 0-3.7 0-8-0.2-8.4 4.7-0.2 2.2 0 4.4 0 6.6v66c0 1.9-0.2 3.8 0 5.6 0.4 4.7 4.3 4.7 7.8 4.7h56.7c2.8-0.2 4.4-2.2 4.6-4.9 0.7-9.2 0-18.8 0-28.1z"/><path fill-rule="evenodd" class="b" d="m132.6 52c0 6.2-5 11.2-11.2 11.2h-27.7c-6.2 0-11.2-5-11.2-11.2 0-6.2 5-11.2 11.2-11.2h27.7c6.2 0 11.2 5 11.2 11.2zm-31.3 0c0-3.7-3.1-6.8-6.8-6.8-3.8 0-6.8 3.1-6.8 6.8 0 3.8 3 6.8 6.8 6.8 3.7 0 6.8-3 6.8-6.8z"/><path fill-rule="evenodd" class="b" d="m132.6 80.4c0 6.1-5 11.2-11.2 11.2h-27.7c-6.2 0-11.2-5.1-11.2-11.2 0-6.2 5-11.2 11.2-11.2h27.7c6.2 0 11.2 5 11.2 11.2zm-4.3 0c0-3.8-3-6.8-6.8-6.8-3.7 0-6.8 3-6.8 6.8 0 3.7 3.1 6.7 6.8 6.7 3.8 0 6.8-3 6.8-6.7z"/><path class="a" d="m48.7 73.7q-0.5-0.7-1.2-1-0.4-0.2-0.8-0.3-0.9-0.1-1.7 0.2-0.2 0-0.3 0.1-0.6 0.2-1.1 0.7-0.4 0.4-0.7 1-0.3 0.5-0.2 1.2-0.1 0.6 0.1 1.2 0.2 0.4 0.5 0.8 0.5 0.7 1.2 1.1 0.4 0.1 0.8 0.2 0.9 0.1 1.7-0.2 0.2 0 0.3-0.1 0.6-0.2 1-0.7 0.5-0.4 0.8-0.9 0.3-0.6 0.2-1.3 0.1-0.6-0.1-1.2-0.2-0.4-0.5-0.8z"/></g></svg>