<svg version="1.2" xmlns="http://www.w3.org/2000/svg" viewBox="0 0 80 100" width="80" height="100"><defs><clipPath clipPathUnits="userSpaceOnUse" id="cp1"><path d="m-2156-1400h3840v3884h-3840z"/></clipPath></defs><style>.a{fill:#404077}</style><g clip-path="url(#cp1)"><path class="a" d="m66.5 90.3h-50.4c-3.2 0-6.7 0-7-4.2-0.2-1.6 0-3.3 0-4.9v-29.2-29.6c0-2-0.2-4 0-5.9 0.3-4.4 4.2-4.2 7.4-4.2 9.2 0 18.4-0.1 27.6 0 14.2 0.1 26.2 11.3 26.5 25.7 0.2 7.6 0 15.3 0 22.9 0 8.3 0.7 16.8 0 25.1-0.2 2.4-1.6 4.1-4.1 4.3-5.3 0.2-5.3 8.5 0 8.2 7.2-0.4 12.3-5.7 12.4-12.9 0-3.8 0-7.6 0-11.4v-33c0-13.6-5.7-26.4-18.1-33-10.3-5.5-22.4-4.1-33.7-4.1-4.5 0-9-0.2-13.5 0-7.1 0.2-12.5 5.2-12.8 12.4-0.3 7.2 0 14.5 0 21.7v35.6c0 7.8-1.8 18.4 6.2 23 3.3 2 7 1.7 10.7 1.7h15.1 31.7 2c5.3 0 5.3-8.2 0-8.2z"/><path class="a" d="m26.4 50.3v-6.4c0-0.8-0.7-1.5-1.6-1.5-4.5 0-8.2 3.7-8.2 8.2 0 0.9 0.7 1.6 1.6 1.6h6.3c1 0 1.9-0.9 1.9-1.9z"/><path fill-rule="evenodd" class="a" d="m61.4 59.2c0.9 0 1.7 0.8 1.7 1.7v5.2c0 0.9-0.8 1.6-1.7 1.6h-16c-2.8 0-4.3 1.9-4.2 4.1v8.7c-0.1 0.8-0.7 1.5-1.5 1.5h-14.9c-4.5 0-8.2-3.7-8.2-8.2v-13c0-0.9 0.8-1.6 1.7-1.6h11.7zm-27.8 11.8c-0.1-1.8-1.5-3.4-3.4-3.4h-5.3c-1.2 0-2 0.5-2.6 1.2-0.5 0.6-0.9 1.4-0.8 2.2 0 0.7 0.2 1.4 0.6 2 0.6 0.8 1.5 1.4 2.8 1.4h5.3c1.8 0 3.5-1.5 3.4-3.4z"/><path class="a" d="m48 76.1v4.3c0 0.9 0.7 1.6 1.6 1.6h5.3c3.7 0 6.9-2.5 7.9-5.9 0.2-0.8-0.4-1.5-1.2-1.5h-12c-0.9 0-1.6 0.7-1.6 1.5z"/><path class="a" d="m63.1 50.6c0-4.5-3.7-8.2-8.2-8.2h-20c-1 0-1.7 0.7-1.7 1.7v6.6c0 0.8 0.7 1.5 1.5 1.5h26.8c0.9 0 1.6-0.7 1.6-1.6z"/></g></svg>