<svg version="1.2" xmlns="http://www.w3.org/2000/svg" viewBox="0 0 760 656" width="760" height="656"><defs><clipPath clipPathUnits="userSpaceOnUse" id="cp1"><path d="m-1536-1820h3840v6084h-3840z"/></clipPath><linearGradient id="P" gradientUnits="userSpaceOnUse"/><linearGradient id="g1" x1="3.3" y1="327.9" x2="664.4" y2="327.9" href="#P"><stop stop-color="#06b9fe"/><stop offset="1" stop-color="#7bff75"/></linearGradient></defs><style>.a{fill:#404077}.b{fill:url(#g1)}.c{fill:#fff}</style><g clip-path="url(#cp1)"><path class="a" d="m757.6 379.5c0 50.9-10 100.3-29.7 146.8-19 44.9-46.2 85.3-80.8 119.9-4.8 4.8-11.1 7.2-17.4 7.2-6.3 0-12.6-2.4-17.4-7.2-9.6-9.6-9.6-25.2 0-34.8 61.9-62 96.1-144.3 96.1-231.9 0-81.8-30.1-156.6-79.8-214.1q2.6 0.4 5.3 0.4c16.9 0 30.5-13.6 30.5-30.5q0-2.2-0.3-4.3c26.6 30.3 48.1 64.4 63.8 101.7 19.7 46.5 29.7 95.9 29.7 146.8z"/><path class="b" d="m664.4 135.3c0 16.9-13.6 30.5-30.5 30.5q-2.7 0-5.3-0.4-11.7-13.6-24.9-25.9c-58.6-54.5-137.1-87.9-223.3-87.9-180.8 0-327.9 147.1-327.9 327.9 0 87.6 34.1 169.9 96.1 231.9 9.6 9.6 9.6 25.2 0 34.8-9.7 9.6-25.2 9.6-34.8 0-34.7-34.6-61.9-75-80.9-119.9-19.6-46.5-29.6-95.9-29.6-146.8 0-50.9 10-100.3 29.6-146.8 19-44.9 46.2-85.2 80.9-119.9 34.6-34.6 74.9-61.8 119.8-80.8 46.5-19.7 95.9-29.6 146.8-29.6 50.9 0 100.3 9.9 146.8 29.6 41.7 17.6 79.3 42.3 112.2 73.3q3.9 3.7 7.7 7.5 8.8 8.9 17 18.2 0.3 2.1 0.3 4.3z"/><path class="a" d="m358 101.9q2.4-1.8 4.2-3.3 1.8-1.5 2.9-3 1.2-1.5 1.7-3.2 0.6-1.7 0.6-3.9 0-2.4-0.8-4.3-0.9-2-2.5-3.4-1.6-1.4-3.9-2.1-2.2-0.8-5.1-0.8-2.4 0-4.3 0.5-1.9 0.4-3.4 1.4-1.6 0.9-3 2.2-1.3 1.3-2.6 3.1l5.5 4.2q2-2.3 3.6-3.5 1.6-1.1 3.7-1.1 2.1 0 3.5 1.1 1.3 1.2 1.3 3.4 0 1.1-0.3 2-0.4 0.9-1.1 1.8-0.7 1-1.9 2-1.2 1.1-2.9 2.4l-11.9 9.4v5.9h26.5v-6.5h-15.6z"/><path fill-rule="evenodd" class="a" d="m404.1 88.5q1.1 3.3 1.1 7 0 3.8-1.1 7-1.2 3.3-3.3 5.7-2.1 2.4-5 3.8-3 1.3-6.5 1.3-3.6 0-6.6-1.3-2.9-1.4-5-3.8-2-2.4-3.2-5.6-1.1-3.2-1.1-7 0-3.7 1.2-7 1.1-3.2 3.2-5.6 2.1-2.5 5-3.8 3-1.4 6.6-1.4 3.5 0 6.5 1.3 2.9 1.4 5 3.8 2.1 2.4 3.2 5.6zm-7 7.1q0-2.3-0.5-4.4-0.6-2-1.6-3.4-1-1.5-2.5-2.3-1.5-0.9-3.2-0.9-1.8 0-3.3 0.8-1.4 0.8-2.4 2.3-1 1.4-1.6 3.4-0.5 2.1-0.5 4.4 0 2.4 0.5 4.4 0.6 2 1.6 3.5 1.1 1.4 2.5 2.3 1.5 0.8 3.3 0.8 1.7 0 3.2-0.8 1.4-0.8 2.4-2.3 1.1-1.5 1.6-3.4 0.5-2 0.5-4.4z"/><path class="a" d="m527.8 164.1q1.7-1.5 2.6-3.6 0.9-2 0.9-4.5 0-2.4-0.8-4.1-0.9-1.7-2.2-2.8-1.3-1.2-3.1-1.8-1.7-0.7-3.6-1l9.1-8.3v-5.6h-24.2v6.4h14l-8.5 8.3 1.2 4.8h3.3q3.4 0 5.2 1.1 1.8 1.1 1.8 3.3 0 1.9-1.4 3-1.4 1.2-3.7 1.2-2.7 0-4.7-1.1-2.1-1-3.9-3l-5.4 4.9q2.3 2.7 5.7 4.3 3.4 1.7 8.2 1.7 3 0 5.4-0.8 2.4-0.9 4.1-2.4z"/><path fill-rule="evenodd" class="a" d="m552.8 167.3q-3.6 0-6.5-1.4-3-1.3-5-3.7-2.1-2.4-3.2-5.6-1.1-3.2-1.1-7 0-3.8 1.1-7 1.2-3.3 3.3-5.7 2-2.4 5-3.8 2.9-1.3 6.5-1.3 3.6 0 6.5 1.3 3 1.4 5 3.8 2.1 2.4 3.2 5.6 1.2 3.3 1.2 7 0 3.8-1.2 7-1.1 3.2-3.2 5.6-2.1 2.4-5.1 3.8-2.9 1.4-6.5 1.4zm-3.1-7.7q1.4 0.9 3.2 0.9 1.8 0 3.2-0.8 1.5-0.8 2.5-2.3 1-1.5 1.5-3.5 0.6-2 0.6-4.3 0-2.4-0.6-4.4-0.5-2-1.6-3.5-1-1.4-2.5-2.3-1.4-0.8-3.2-0.8-1.8 0-3.2 0.8-1.4 0.8-2.5 2.3-1 1.4-1.5 3.4-0.6 2-0.6 4.4 0 2.3 0.6 4.3 0.6 2.1 1.6 3.5 1 1.5 2.5 2.3z"/><path class="a" d="m625.6 273.5q0-2.9-1-5-1-2.1-2.7-3.4-1.7-1.3-3.9-2-2.3-0.6-5-0.6-1.5 0-2.5 0.2-1.1 0.1-2.2 0.4l0.4-6h15.3v-6.6h-22l-1 17 4.5 2.8q1.3-0.5 2.8-0.9 1.5-0.3 3.2-0.3 2.9 0 4.6 1.2 1.7 1.2 1.7 3.5 0 2.4-1.6 3.6-1.6 1.2-4.4 1.2-2.4 0-4.4-0.9-2.1-1-4.1-2.8l-4.7 5.4q2.6 2.4 5.8 3.8 3.2 1.4 7.5 1.4 3.1 0 5.7-0.9 2.5-0.8 4.3-2.4 1.7-1.5 2.7-3.7 1-2.2 1-5z"/><path fill-rule="evenodd" class="a" d="m632.4 274.7q-1.1-3.2-1.1-7 0-3.7 1.2-6.9 1.1-3.3 3.2-5.7 2.1-2.4 5.1-3.8 2.9-1.4 6.5-1.4 3.5 0 6.5 1.4 2.9 1.3 5 3.7 2.1 2.4 3.2 5.7 1.1 3.2 1.1 7 0 3.7-1.1 7-1.2 3.2-3.3 5.6-2.1 2.4-5 3.8-3 1.4-6.5 1.4-3.6 0-6.6-1.4-2.9-1.3-5-3.7-2-2.4-3.2-5.7zm7-7q0 2.3 0.6 4.3 0.5 2 1.5 3.5 1.1 1.5 2.5 2.3 1.5 0.8 3.3 0.8 1.8 0 3.2-0.8 1.4-0.8 2.4-2.2 1.1-1.5 1.6-3.5 0.5-2 0.5-4.4 0-2.3-0.5-4.3-0.6-2-1.6-3.5-1-1.5-2.5-2.3-1.4-0.8-3.2-0.8-1.8 0-3.3 0.8-1.4 0.8-2.4 2.2-1 1.5-1.6 3.5-0.5 2-0.5 4.4z"/><path class="a" d="m622.3 420.9h17.1l-16.3 28.3h9.1l16.3-29.1v-5.8h-26.2z"/><path class="a" d="m679.7 432.6q-1-2.2-2.7-3.5-1.8-1.4-4.1-2-2.3-0.7-5-0.7-1.5 0-2.6 0.2-1.1 0.2-2.2 0.4l0.4-6h15.6v-6.7h-22.4l-1.1 17.2 4.7 2.9q1.3-0.5 2.8-0.9 1.5-0.4 3.2-0.4 3 0 4.7 1.3 1.8 1.2 1.8 3.6 0 2.4-1.7 3.6-1.6 1.3-4.4 1.3-2.4 0-4.5-1-2.1-1-4.2-2.8l-4.8 5.5q2.6 2.4 5.9 3.8 3.3 1.4 7.7 1.4 3.1 0 5.7-0.8 2.6-0.9 4.4-2.5 1.8-1.5 2.8-3.8 1-2.2 1-5 0-3-1-5.1z"/><path class="a" d="m523.4 547.8l1.6 6.1 6.2-1.4v26.9h7.8v-34.6h-5.4z"/><path fill-rule="evenodd" class="a" d="m577.1 555.2q1.2 3.3 1.2 7 0 3.8-1.2 7-1.1 3.2-3.2 5.6-2.1 2.5-5.1 3.8-2.9 1.4-6.5 1.4-3.6 0-6.5-1.3-2.9-1.4-5-3.8-2.1-2.4-3.2-5.6-1.1-3.2-1.1-7 0-3.7 1.1-7 1.2-3.3 3.3-5.7 2.1-2.4 5-3.8 2.9-1.3 6.5-1.3 3.6 0 6.5 1.3 3 1.4 5.1 3.8 2 2.4 3.1 5.6zm-6.9 7.1q0-2.4-0.6-4.4-0.5-2-1.6-3.5-1-1.4-2.4-2.3-1.5-0.8-3.3-0.8-1.8 0-3.2 0.8-1.4 0.8-2.5 2.3-1 1.4-1.5 3.4-0.6 2-0.6 4.4 0 2.3 0.6 4.4 0.6 2 1.6 3.4 1 1.5 2.5 2.3 1.4 0.9 3.2 0.9 1.8 0 3.2-0.8 1.5-0.8 2.5-2.3 1-1.5 1.6-3.5 0.5-2 0.5-4.3z"/><path fill-rule="evenodd" class="a" d="m614.5 555.2q1.1 3.3 1.1 7 0 3.8-1.2 7-1.1 3.2-3.2 5.6-2.1 2.5-5 3.8-3 1.4-6.6 1.4-3.5 0-6.5-1.3-2.9-1.4-5-3.8-2.1-2.4-3.2-5.6-1.1-3.2-1.1-7 0-3.7 1.1-7 1.2-3.3 3.3-5.7 2.1-2.4 5-3.8 3-1.3 6.5-1.3 3.6 0 6.6 1.3 2.9 1.4 5 3.8 2 2.4 3.2 5.6zm-7 7.1q0-2.4-0.5-4.4-0.6-2-1.6-3.5-1.1-1.4-2.5-2.3-1.5-0.8-3.3-0.8-1.7 0-3.2 0.8-1.4 0.8-2.4 2.3-1.1 1.4-1.6 3.4-0.5 2-0.5 4.4 0 2.3 0.5 4.4 0.6 2 1.6 3.4 1 1.5 2.5 2.3 1.5 0.9 3.2 0.9 1.8 0 3.3-0.8 1.4-0.8 2.4-2.3 1-1.5 1.6-3.5 0.5-2 0.5-4.3z"/><path class="a" d="m182.6 135.1l1.6 6.1 6.2-1.4v26.9h7.8v-34.6h-5.4z"/><path fill-rule="evenodd" class="a" d="m236.3 142.5q1.2 3.3 1.2 7 0 3.8-1.2 7-1.1 3.2-3.2 5.6-2.1 2.4-5.1 3.8-2.9 1.4-6.5 1.4-3.6 0-6.5-1.4-2.9-1.3-5-3.7-2.1-2.4-3.2-5.6-1.1-3.2-1.1-7 0-3.8 1.1-7 1.2-3.3 3.3-5.7 2.1-2.4 5-3.8 2.9-1.3 6.5-1.3 3.6 0 6.5 1.3 3 1.4 5 3.8 2.1 2.4 3.2 5.6zm-6.9 7.1q0-2.4-0.6-4.4-0.5-2-1.6-3.5-1-1.4-2.4-2.3-1.5-0.8-3.3-0.8-1.8 0-3.2 0.8-1.4 0.8-2.5 2.3-1 1.4-1.5 3.4-0.6 2-0.6 4.4 0 2.3 0.6 4.3 0.6 2.1 1.6 3.5 1 1.5 2.5 2.3 1.4 0.9 3.2 0.9 1.8 0 3.2-0.8 1.5-0.8 2.5-2.3 1-1.5 1.5-3.5 0.6-2 0.6-4.3z"/><path class="a" d="m116.6 264.8q-1.7-1.4-4.1-2-2.3-0.7-5-0.7-1.5 0-2.6 0.2-1.1 0.2-2.2 0.4l0.4-6h15.6v-6.8h-22.4l-1.1 17.2 4.7 3q1.3-0.6 2.8-0.9 1.5-0.4 3.2-0.4 3 0 4.8 1.3 1.7 1.2 1.7 3.5 0 2.4-1.6 3.7-1.7 1.2-4.5 1.2-2.4 0-4.5-1-2.1-1-4.2-2.8l-4.8 5.6q2.6 2.4 5.9 3.8 3.3 1.4 7.7 1.4 3.1 0 5.7-0.9 2.6-0.8 4.4-2.4 1.8-1.6 2.8-3.8 1-2.3 1-5.1 0-3-1-5.1-1-2.1-2.7-3.4z"/><path class="a" d="m76.6 416.2l1.7 6.4 6.4-1.5v27.7h8v-35.6h-5.5z"/><path fill-rule="evenodd" class="a" d="m171.3 552.3q1.3 3.6 1.3 7.8 0 4.2-1.3 7.8-1.3 3.7-3.6 6.3-2.4 2.7-5.6 4.3-3.3 1.5-7.3 1.5-4 0-7.3-1.5-3.3-1.5-5.6-4.2-2.3-2.7-3.6-6.3-1.2-3.6-1.2-7.8 0-4.2 1.3-7.8 1.2-3.7 3.6-6.3 2.3-2.7 5.6-4.3 3.3-1.5 7.3-1.5 4 0 7.3 1.5 3.3 1.5 5.6 4.2 2.3 2.7 3.5 6.3zm-7.7 7.9q0-2.6-0.7-4.9-0.6-2.2-1.7-3.9-1.2-1.6-2.8-2.5-1.6-1-3.6-1-2 0-3.6 0.9-1.6 0.9-2.8 2.6-1.1 1.6-1.7 3.8-0.6 2.3-0.6 4.9 0 2.6 0.6 4.9 0.7 2.2 1.8 3.9 1.1 1.6 2.8 2.5 1.6 1 3.6 1 2 0 3.6-0.9 1.6-0.9 2.7-2.6 1.2-1.6 1.8-3.8 0.6-2.3 0.6-4.9z"/><path class="a" d="m567.2 213.5l-10.4-10.5c-2.7-2.8-7.2-2.9-10.1-0.4l-185.4 162.7c-3.2 2.8-3.4 7.7-0.4 10.7l30.5 30.9c3 3 7.9 2.9 10.7-0.2l165.4-183.1c2.6-2.8 2.5-7.3-0.3-10.1z"/><path class="c" d="m664.4 135.3c0 16.9-13.6 30.5-30.5 30.5q-2.7 0-5.3-0.4c-13-2.3-23.1-12.8-24.9-25.9q-0.3-2-0.3-4.2c0-16.8 13.7-30.5 30.5-30.5q2.8 0 5.5 0.5c12.8 2.4 22.8 12.7 24.7 25.7q0.3 2.1 0.3 4.3z"/><path fill-rule="evenodd" class="a" d="m237.8 484.2h8.1c5.6 0 8.5 3.1 8.5 9.5v12.6c0 6.4-2.9 9.5-8.5 9.5h-8.1zm5.4 27.1h1.9c2.9 0 3.9-1 3.9-4.4v-13.8c0-3.3-1-4.4-3.9-4.4h-1.9z"/><path fill-rule="evenodd" class="a" d="m259.7 491.8c0-4.4 2.6-8 8.3-8 5.7 0 8.3 3.6 8.3 8v16.3c0 4.5-2.6 8.1-8.3 8.1-5.7 0-8.3-3.6-8.3-8.1zm5.4 16.2c0 2.4 0.7 3.5 2.9 3.5 2.2 0 2.9-1.1 2.9-3.5v-16c0-2.4-0.7-3.5-2.9-3.5-2.2 0-2.9 1.1-2.9 3.5z"/><path class="a" d="m291 484.2h4.5l3.6 20.1h0.1l3-20.1h5.1l-5.5 31.6h-4.6l-3.9-20.9h-0.1l-3.7 20.9h-4.5l-6-31.6h5l3.4 20.1z"/><path class="a" d="m310.8 515.8v-31.6h5l6.6 18.1h0.1v-18.1h4.9v31.6h-4.7l-6.9-19.7h-0.1v19.7z"/><path class="a" d="m332.4 515.8v-31.6h5.4v26.9h8.6v4.7z"/><path fill-rule="evenodd" class="a" d="m349.7 491.8c0-4.4 2.6-8 8.3-8 5.7 0 8.4 3.6 8.4 8v16.3c0 4.5-2.7 8.1-8.4 8.1-5.7 0-8.3-3.6-8.3-8.1zm5.4 16.2c0 2.4 0.7 3.5 2.9 3.5 2.2 0 2.9-1.1 2.9-3.5v-16c0-2.4-0.7-3.5-2.9-3.5-2.2 0-2.9 1.1-2.9 3.5z"/><path fill-rule="evenodd" class="a" d="m374.8 515.8h-5.3l5.8-31.6h6.8l5.8 31.6h-5.3l-0.9-7h-6zm1.8-11.7h4.4l-2.2-13.6h-0.1z"/><path fill-rule="evenodd" class="a" d="m391 484.2h8.1c5.6 0 8.6 3.1 8.6 9.5v12.6c0 6.4-3 9.5-8.6 9.5h-8.1zm5.5 27.1h1.9c2.8 0 3.9-1 3.9-4.4v-13.8c0-3.3-1.1-4.4-3.9-4.4h-1.9z"/><path class="a" d="m432.6 492c-0.3-2.7-1.7-3.5-2.9-3.5-1.8 0-2.8 1.1-2.8 3.1 0 5.4 11.1 8 11.1 16.5 0 5.2-3.5 8.1-8.6 8.1-5 0-7.9-4-8.1-8.7l5.1-0.8c0.2 3.2 1.5 4.8 3.3 4.8 1.8 0 3.1-1 3.1-2.9 0-6.2-11-7.9-11-17 0-5 3-7.8 8.4-7.8 4.4 0 7 3.1 7.5 7.6z"/><path fill-rule="evenodd" class="a" d="m442.1 515.8v-31.6h7.8c6.7 0 9.8 2.6 9.8 9.3 0 6.8-3.1 9.3-9.8 9.3h-2.4v13zm5.5-17.4h2.1c3.5 0 4.6-1.1 4.6-4.9 0-3.8-1.1-4.8-4.6-4.8h-2.1z"/><path class="a" d="m464 515.8v-31.6h14.5v4.7h-9.1v8.2h7v4.7h-7v9.3h9.7v4.7z"/><path class="a" d="m483.4 515.8v-31.6h14.6v4.7h-9.1v8.2h7v4.7h-7v9.3h9.7v4.7z"/><path fill-rule="evenodd" class="a" d="m502.9 484.2h8c5.6 0 8.6 3.1 8.6 9.5v12.6c0 6.4-3 9.5-8.6 9.5h-8zm5.4 27.1h1.9c2.9 0 3.9-1 3.9-4.4v-13.8c0-3.3-1-4.4-3.9-4.4h-1.9z"/></g></svg>