<svg version="1.2" xmlns="http://www.w3.org/2000/svg" viewBox="0 0 44 52" width="44" height="52"><defs><clipPath clipPathUnits="userSpaceOnUse" id="cp1"><path d="m-3036-120h3840v6244h-3840z"/></clipPath></defs><style>.a{fill:#fff}</style><g clip-path="url(#cp1)"><path fill-rule="evenodd" class="a" d="m40.6 25.1v21c0 2.6-2.3 4.6-5.1 4.6h-28.5c-2.7 0-5-2-5-4.6v-21c0-2.3 1.8-4.2 4.1-4.6v-6.7c0-6.5 5.6-11.8 12.4-11.8h5.4c6.8 0 12.4 5.3 12.4 11.8v6.7c2.4 0.4 4.3 2.3 4.3 4.6zm-8.4-11.3c0-4.3-3.7-7.9-8.3-7.9h-5.4c-4.5 0-8.2 3.6-8.2 7.9v6.7h21.9z"/></g></svg>